<svg width="310" height="184" viewBox="0 0 310 184" fill="none" xmlns="http://www.w3.org/2000/svg">
<g clip-path="url(#clip0_1_972)">
<g filter="url(#filter0_d_1_972)">
<path d="M176.914 75.0781L177.237 76.0056C191.919 73.8445 212.817 77.0024 229.94 85.7571L230.167 85.3119L229.94 85.7571C240.093 90.9483 248.878 98.0698 254.307 107.133C259.728 116.183 261.825 127.202 258.557 140.252L258.556 140.253C258.471 140.594 258.124 140.804 257.781 140.719C257.439 140.633 257.229 140.284 257.315 139.94C260.495 127.239 258.424 116.475 253.077 107.628C247.738 98.7955 239.155 91.9077 229.355 86.8975C219.466 81.8418 208.306 78.6636 197.854 77.3307C187.41 75.9987 177.631 76.5039 170.517 78.8547L170.516 78.8548C170.173 78.9685 169.981 78.8908 169.87 78.8153C169.732 78.7228 169.655 78.5884 169.636 78.5491L169.635 78.5485C169.602 78.4812 169.553 78.3621 169.555 78.2271C169.556 78.113 169.592 77.9477 169.8 77.7557L169.8 77.7558C169.8 77.7558 169.807 77.7493 169.826 77.7351C169.846 77.7201 169.873 77.7009 169.907 77.6771C169.976 77.6293 170.069 77.569 170.183 77.4967C170.411 77.3522 170.715 77.1674 171.076 76.9528C171.796 76.524 172.73 75.9833 173.704 75.4234C174.36 75.0467 175.035 74.6607 175.675 74.2949C176.932 73.5768 178.053 72.936 178.627 72.5935C179.3 72.1928 180.26 71.6926 181.408 71.0966L181.516 71.0404C182.633 70.4607 183.91 69.7978 185.233 69.0653C187.96 67.5564 190.919 65.7345 193.124 63.6985C194.372 62.5484 195.433 61.2944 195.943 59.9495C196.466 58.5704 196.398 57.1185 195.431 55.6617C194.456 54.1905 192.964 53.3674 191.189 52.9926C189.423 52.6198 187.351 52.6832 185.149 52.9982L185.149 52.9982C179.506 53.8062 172.803 56.4305 167.032 59.3212C161.269 62.208 156.355 65.4011 154.309 67.39L154.309 67.3903C154.054 67.6378 153.65 67.6314 153.404 67.3791L153.404 67.379C153.157 67.1254 153.162 66.7208 153.417 66.4724C155.432 64.5121 160.435 61.2352 166.413 58.2326C172.384 55.2339 179.248 52.5495 184.967 51.7309C190.306 50.9666 194.477 51.9043 196.498 54.9524C197.622 56.6471 197.798 58.2953 197.318 59.8887C196.831 61.5076 195.653 63.1095 193.992 64.6405L193.992 64.6406C191.818 66.6468 188.87 68.481 186.087 70.0331C184.723 70.7943 183.406 71.4835 182.247 72.0899L182.187 72.1211C181.02 72.7318 180.006 73.2633 179.285 73.6933C178.822 73.9679 177.941 74.4842 176.914 75.0781Z" fill="black" stroke="black"/>
<path d="M258.235 140.243L257.633 138.958C257.372 138.402 257.117 137.848 256.863 137.295C255.995 135.409 255.138 133.547 254.118 131.749L254.118 131.749C250.605 125.551 245.648 119.868 239.645 116.04C239.344 115.85 238.949 115.939 238.758 116.235C238.568 116.536 238.657 116.931 238.954 117.121C244.813 120.852 249.607 126.389 253.003 132.38L253.003 132.381C254.031 134.197 254.905 136.098 255.769 137.979C256.191 138.899 256.612 139.813 257.047 140.711C257.062 140.741 257.097 140.818 257.144 140.919C257.215 141.072 257.313 141.283 257.406 141.476C257.489 141.649 257.574 141.821 257.648 141.961C257.686 142.031 257.718 142.09 257.745 142.136C257.77 142.178 257.783 142.196 257.786 142.201C257.787 142.201 257.787 142.202 257.787 142.201L257.789 142.204C257.931 142.378 258.067 142.437 258.17 142.459C258.284 142.483 258.392 142.469 258.468 142.45L258.474 142.449L258.474 142.449C258.589 142.423 258.725 142.365 258.863 142.224C258.963 142.119 259.182 141.779 259.385 141.18L259.386 141.178C259.721 140.199 260.123 138.485 260.475 136.889C260.582 136.404 260.685 135.927 260.78 135.487C260.991 134.512 261.162 133.72 261.249 133.429C261.249 133.429 261.249 133.429 261.249 133.429L261.728 133.573C264.15 125.53 267.613 118.34 271.202 110.887C271.686 109.883 272.171 108.876 272.656 107.86L258.235 140.243ZM258.235 140.243L258.571 138.864C259.112 136.644 259.863 133.589 260.024 133.06L260.025 133.058C262.478 124.906 265.987 117.617 269.646 110.013C270.113 109.045 270.581 108.071 271.051 107.09C271.204 106.77 271.586 106.636 271.903 106.788C272.22 106.94 272.357 107.324 272.205 107.645L258.235 140.243Z" fill="black" stroke="black"/>
</g>
</g>
<path d="M26.5479 61.4031C25.6713 62.8024 26.9271 66.8122 28.7001 68.2897C30.0602 69.3947 31.0665 68.888 31.3315 66.948C31.6359 64.9033 30.1377 62.0006 28.4323 61.2711C27.1328 60.7009 26.9764 60.7296 26.5479 61.4031Z" fill="black"/>
<path d="M14.8404 62.3338C13.9637 63.733 15.2196 67.7429 16.9926 69.2204C18.3527 70.3254 19.359 69.8186 19.624 67.8786C19.9284 65.8339 18.4302 62.9313 16.7248 62.2018C15.4253 61.6315 15.2688 61.6603 14.8404 62.3338Z" fill="black"/>
<path d="M9.88193 73.7075C10.2414 75.9226 14.3541 80.0018 18.0101 81.7375C19.1376 82.3003 21.0826 82.7031 22.8021 82.7769C25.5025 82.8751 25.8859 82.7851 29.3741 81.1786C32.7215 79.637 33.2387 79.2689 34.844 77.4042C36.889 74.9907 38.8424 69.8058 38.2223 68.3601C37.6796 67.095 36.8918 67.7176 35.3133 70.8252C33.5656 74.2272 32.5918 75.4981 30.558 76.9541C28.6144 78.3254 24.9796 79.3934 22.6935 79.2776C19.9776 79.1433 14.8713 76.3874 12.0947 73.5541C10.6811 72.1275 9.64514 72.1717 9.88193 73.7075Z" fill="black"/>
<g filter="url(#filter1_d_1_972)">
<path d="M63.7854 72.4738C62.3482 73.0958 60.9683 73.3876 59.6455 73.3492C58.3228 73.3108 57.1436 72.947 56.1079 72.2576C55.0722 71.5683 54.2625 70.5494 53.6789 69.201L53.3563 68.4558L56.8162 66.9583L57.1387 67.7035C57.6225 68.8213 58.3333 69.5143 59.271 69.7826C60.201 70.0331 61.2604 69.9011 62.4492 69.3866C63.6557 68.8644 64.448 68.237 64.8262 67.5045C65.2221 66.7644 65.2587 66.0217 64.9362 65.2765C64.7135 64.762 64.3822 64.4103 63.9424 64.2215C63.5202 64.025 62.9831 63.952 62.3308 64.0026C61.6886 64.0278 60.9299 64.1244 60.0547 64.2926L59.385 64.4244C57.9847 64.6935 56.731 64.8147 55.6241 64.7883C54.5272 64.7363 53.5768 64.4631 52.7728 63.9684C51.9866 63.466 51.3477 62.6471 50.8563 61.5115C50.3648 60.376 50.2124 59.2938 50.3991 58.265C50.5958 57.2108 51.09 56.2596 51.8815 55.4114C52.6831 54.5378 53.7493 53.813 55.08 53.237C56.4107 52.661 57.6904 52.381 58.9191 52.3969C60.158 52.3874 61.2659 52.7083 62.2431 53.3598C63.2303 53.9858 64.0158 54.9731 64.5994 56.3215L64.945 57.1199L61.4852 58.6174L61.1396 57.819C60.8324 57.1093 60.4447 56.603 59.9765 56.3C59.5184 55.9717 58.9898 55.8212 58.3908 55.8488C57.7841 55.8586 57.1259 56.0171 56.4162 56.3242C55.3517 56.785 54.6504 57.3308 54.3125 57.9616C53.9847 58.5669 53.9705 59.2156 54.27 59.9076C54.4697 60.3689 54.7539 60.7093 55.1228 60.9288C55.5095 61.1407 55.9884 61.2494 56.5596 61.255C57.1308 61.2605 57.8235 61.1819 58.6379 61.019L59.3076 60.8872C60.7612 60.5951 62.0719 60.4596 63.2397 60.4808C64.4253 60.4943 65.4505 60.7458 66.3154 61.2352C67.1803 61.7246 67.8585 62.537 68.3499 63.6725C68.8414 64.8081 68.9826 65.9373 68.7734 67.0601C68.5742 68.1575 68.0499 69.1849 67.2003 70.1425C66.3609 71.0747 65.2226 71.8517 63.7854 72.4738ZM73.4033 67.8685L65.3398 49.2387L68.6932 47.7872L71.7458 54.84L72.2248 54.6326C72.2439 54.2873 72.3428 53.9074 72.5216 53.493C72.7003 53.0785 72.9997 52.6751 73.4197 52.2826C73.8498 51.8648 74.4551 51.4869 75.2358 51.149C76.2649 50.7036 77.2646 50.5553 78.2349 50.7041C79.2152 50.8275 80.0988 51.214 80.8855 51.8636C81.6646 52.4955 82.2922 53.3614 82.7683 54.4615L86.1781 62.3392L82.8247 63.7907L79.5302 56.179C79.1001 55.1855 78.5292 54.5478 77.8174 54.266C77.1233 53.9766 76.3238 54.0277 75.4189 54.4193C74.3898 54.8647 73.7412 55.5563 73.4729 56.494C73.197 57.414 73.3239 58.4861 73.8538 59.7103L76.7567 66.4171L73.4033 67.8685ZM95.9792 58.5394C94.6663 59.1077 93.3851 59.3357 92.1357 59.2234C90.8963 59.0857 89.7739 58.634 88.7684 57.8684C87.773 57.0774 86.9758 55.99 86.3768 54.606L86.2385 54.2867C85.6395 52.9027 85.3962 51.5861 85.5085 50.3367C85.6131 49.0695 86.0431 47.9459 86.7987 46.9659C87.5465 45.968 88.5769 45.185 89.8899 44.6167C91.1851 44.0561 92.4385 43.8612 93.65 44.032C94.8538 44.1851 95.9446 44.661 96.9223 45.4597C97.8923 46.2406 98.6691 47.3053 99.2528 48.6537L99.7481 49.7981L90.1405 53.9566C90.5676 54.8461 91.2234 55.4365 92.1079 55.7278C92.9924 56.0191 93.8959 55.9651 94.8185 55.5658C95.7589 55.1588 96.3626 54.6552 96.6295 54.0552C96.8964 53.4551 97.0377 52.8567 97.0533 52.2601L100.417 52.5108C100.368 53.0796 100.223 53.7427 99.9821 54.5001C99.7511 55.232 99.3298 55.9621 98.7181 56.6904C98.0987 57.4008 97.1857 58.0172 95.9792 58.5394ZM89.0843 51.4434L95.2587 48.7709C94.8575 48.0387 94.2821 47.5609 93.5324 47.3377C92.8004 47.1068 91.9998 47.1795 91.1304 47.5558C90.2255 47.9474 89.6068 48.4891 89.2741 49.1808C88.9415 49.8725 88.8782 50.6267 89.0843 51.4434ZM108.904 58.8226L107.637 55.895L114.823 52.7848C115.32 52.5698 115.453 52.1962 115.223 51.6639L113.783 48.3371L113.304 48.5445C113.292 48.9075 113.201 49.3052 113.03 49.7373C112.859 50.1695 112.558 50.5945 112.128 51.0124C111.698 51.4303 111.084 51.812 110.286 52.1576C109.257 52.603 108.252 52.764 107.271 52.6406C106.301 52.4918 105.423 52.0926 104.636 51.443C103.849 50.7934 103.222 49.9274 102.753 48.8451L99.3434 40.9674L102.697 39.5159L105.991 47.1275C106.421 48.1211 106.983 48.7626 107.677 49.0521C108.389 49.3339 109.198 49.2789 110.103 48.8873C111.132 48.4418 111.784 47.7592 112.06 46.8392C112.328 45.9015 112.197 44.8205 111.668 43.5963L108.765 36.8895L112.118 35.4381L118.845 50.9807C119.237 51.8856 119.282 52.7193 118.98 53.482C118.686 54.2624 118.095 54.8446 117.208 55.2286L108.904 58.8226ZM121.563 47.0235L115.85 33.823L119.203 32.3715L124.917 45.5721L121.563 47.0235ZM116.858 31.5536C116.255 31.8147 115.656 31.8423 115.061 31.6362C114.484 31.4225 114.057 30.9963 113.781 30.3576C113.505 29.7188 113.486 29.116 113.725 28.549C113.982 27.9744 114.412 27.5565 115.015 27.2954C115.636 27.0266 116.235 26.9991 116.812 27.2128C117.389 27.4265 117.816 27.8527 118.092 28.4915C118.369 29.1302 118.388 29.733 118.148 30.3C117.909 30.867 117.479 31.2849 116.858 31.5536Z" fill="black"/>
</g>
<defs>
<filter id="filter0_d_1_972" x="151.722" y="50.9785" width="121.045" height="95.993" filterUnits="userSpaceOnUse" color-interpolation-filters="sRGB">
<feFlood flood-opacity="0" result="BackgroundImageFix"/>
<feColorMatrix in="SourceAlpha" type="matrix" values="0 0 0 0 0 0 0 0 0 0 0 0 0 0 0 0 0 0 127 0" result="hardAlpha"/>
<feOffset dx="-1" dy="4"/>
<feComposite in2="hardAlpha" operator="out"/>
<feColorMatrix type="matrix" values="0 0 0 0 0 0 0 0 0 0 0 0 0 0 0 0 0 0 1 0"/>
<feBlend mode="normal" in2="BackgroundImageFix" result="effect1_dropShadow_1_972"/>
<feBlend mode="normal" in="SourceGraphic" in2="effect1_dropShadow_1_972" result="shape"/>
</filter>
<filter id="filter1_d_1_972" x="48.0806" y="26.3623" width="79.6189" height="58.2295" filterUnits="userSpaceOnUse" color-interpolation-filters="sRGB">
<feFlood flood-opacity="0" result="BackgroundImageFix"/>
<feColorMatrix in="SourceAlpha" type="matrix" values="0 0 0 0 0 0 0 0 0 0 0 0 0 0 0 0 0 0 127 0" result="hardAlpha"/>
<feOffset dy="4"/>
<feComposite in2="hardAlpha" operator="out"/>
<feColorMatrix type="matrix" values="0 0 0 0 0.906944 0 0 0 0 0.906944 0 0 0 0 0.906944 0 0 0 0.32 0"/>
<feBlend mode="normal" in2="BackgroundImageFix" result="effect1_dropShadow_1_972"/>
<feBlend mode="normal" in="SourceGraphic" in2="effect1_dropShadow_1_972" result="shape"/>
</filter>
<clipPath id="clip0_1_972">
<rect width="130" height="130" fill="white" transform="translate(213.916) rotate(42.6258)"/>
</clipPath>
</defs>
</svg>
